<svg width="22" height="21" viewBox="0 0 22 21" fill="none" xmlns="http://www.w3.org/2000/svg" data-v-378d418c="" class=""><path d="M15.3228 15.769C15.0937 15.769 14.874 15.678 14.712 15.516C14.55 15.354 14.459 15.1343 14.459 14.9052V7.13073H6.68451C6.4554 7.13073 6.23569 7.03972 6.07369 6.87772C5.91169 6.71572 5.82068 6.496 5.82068 6.2669C5.82068 6.0378 5.91169 5.81808 6.07369 5.65609C6.23569 5.49409 6.4554 5.40308 6.68451 5.40308H15.3228C15.5519 5.40308 15.7716 5.49409 15.9336 5.65609C16.0956 5.81808 16.1866 6.0378 16.1866 6.2669V14.9052C16.1866 15.1343 16.0956 15.354 15.9336 15.516C15.7716 15.678 15.5519 15.769 15.3228 15.769Z" fill="#1D1E2C" data-v-378d418c=""></path><path d="M6.68444 15.7687C6.51362 15.7687 6.34665 15.718 6.20462 15.6231C6.0626 15.5282 5.95191 15.3933 5.88655 15.2355C5.82118 15.0776 5.80407 14.904 5.83739 14.7364C5.8707 14.5689 5.95295 14.415 6.07372 14.2942L14.712 5.65592C14.8745 5.49636 15.0934 5.40742 15.3211 5.40846C15.5488 5.40949 15.7669 5.50041 15.9279 5.66143C16.089 5.82245 16.1799 6.04055 16.1809 6.26827C16.1819 6.49599 16.093 6.7149 15.9334 6.87737L7.29517 15.5156C7.21507 15.596 7.11988 15.6597 7.01507 15.7031C6.91026 15.7466 6.7979 15.7689 6.68444 15.7687Z" fill="#1D1E2C" data-v-378d418c=""></path></svg>